<svg width="256" height="256" viewBox="0 0 256 256" fill="none" xmlns="http://www.w3.org/2000/svg">
<g clip-path="url(#clip0_704_14)">
<rect width="256" height="256" fill="black"/>
<path fill-rule="evenodd" clip-rule="evenodd" d="M157.709 99.059C157.709 82.6244 144.344 69.3503 128 69.3503C111.656 69.3503 98.2912 82.6244 98.2912 99.059H74.2715C74.2715 84.7013 79.8701 71.2466 89.9837 61.0427C100.097 50.9292 113.642 45.3306 128 45.3306C142.358 45.3306 155.812 50.9292 166.016 61.0427C176.13 71.2466 181.728 84.7013 181.728 99.059H157.709ZM128.09 186.65C144.434 186.65 157.799 173.285 157.799 156.941H157.709V113.597H181.728V156.941C181.728 171.299 176.13 184.754 166.016 194.957C155.812 205.071 142.358 210.67 128 210.67C113.642 210.67 100.188 205.071 89.9837 194.957C79.8701 184.844 74.2715 171.299 74.2715 156.941V132.921H98.3815V156.941C98.3815 173.376 111.746 186.65 128.09 186.65Z" fill="white"/>
</g>
<defs>
<clipPath id="clip0_704_14">
<rect width="256" height="256" fill="white"/>
</clipPath>
</defs>
</svg>
